<?xml version="1.0" standalone="no"?>
<!DOCTYPE svg PUBLIC "-//W3C//DTD SVG 20010904//EN"
 "http://www.w3.org/TR/2001/REC-SVG-20010904/DTD/svg10.dtd">
<svg version="1.0" xmlns="http://www.w3.org/2000/svg"
 width="954.000000pt" height="475.000000pt" viewBox="0 0 954.000000 475.000000"
 preserveAspectRatio="xMidYMid meet">

<g transform="translate(0.000000,475.000000) scale(0.100000,-0.100000)"
fill="#000000" stroke="none">
<path d="M3860 4109 c-115 -19 -244 -109 -304 -212 -29 -49 -56 -145 -56 -199
l0 -38 -295 0 -295 0 0 -85 0 -85 295 0 295 0 0 -239 0 -239 -212 -4 c-250 -5
-290 -15 -382 -99 -122 -111 -158 -206 -159 -414 -1 -84 4 -162 12 -195 31
-127 128 -253 233 -303 75 -36 156 -47 343 -47 l161 0 10 -77 c6 -43 21 -100
34 -127 38 -79 121 -160 208 -203 l76 -38 505 -3 c483 -3 508 -2 572 18 167
50 299 215 299 375 l0 55 295 0 295 0 0 90 0 91 -292 -1 -293 -1 -3 235 -2
236 178 0 c99 0 204 5 233 10 163 31 302 174 338 348 14 68 14 261 0 338 -15
82 -62 173 -121 233 -108 110 -177 131 -439 131 l-186 0 -5 73 c-10 159 -121
298 -286 360 -55 20 -73 21 -527 23 -258 1 -495 -2 -525 -7z m1022 -187 c54
-27 113 -88 134 -138 8 -18 14 -56 14 -83 l0 -49 -50 -17 c-73 -24 -160 -93
-207 -164 -62 -91 -76 -144 -82 -310 l-6 -145 -65 3 c-138 4 -230 57 -276 155
-23 50 -24 58 -24 324 l0 272 -85 0 -85 0 0 -278 c0 -307 6 -346 61 -434 83
-130 227 -204 404 -209 l75 -2 0 -241 c0 -271 10 -344 59 -430 54 -94 197
-206 264 -206 14 0 17 -9 17 -52 0 -99 -59 -186 -155 -229 -37 -17 -77 -19
-520 -19 -461 0 -482 1 -525 21 -93 42 -152 126 -154 218 l-1 53 42 13 c90 27
183 104 236 196 45 78 57 140 57 292 l0 139 78 -7 c105 -9 142 -20 190 -55 51
-37 88 -91 101 -150 6 -25 11 -159 11 -297 l0 -253 85 0 85 0 0 253 c0 138 -4
278 -10 310 -22 137 -110 249 -244 313 -63 30 -93 38 -185 47 l-110 10 -3 281
-3 281 -32 68 c-54 113 -173 217 -277 241 -28 7 -29 8 -23 61 12 121 93 211
210 235 23 5 247 8 497 7 l455 -2 47 -23z m749 -455 c51 -26 108 -84 133 -137
19 -40 21 -63 21 -200 0 -175 -11 -215 -77 -282 -72 -71 -81 -73 -395 -76
l-283 -3 0 -315 0 -315 -28 15 c-42 22 -107 97 -123 142 -11 29 -14 104 -14
302 l0 264 52 18 c103 36 204 128 251 228 25 52 27 69 30 207 2 83 5 156 7
163 4 11 44 13 197 10 162 -2 199 -6 229 -21z m-1923 -11 c41 -21 88 -76 111
-126 19 -42 21 -65 21 -311 l0 -266 -47 -18 c-146 -54 -252 -171 -282 -313 -6
-29 -11 -107 -11 -172 l0 -120 -197 0 -198 0 -53 31 c-58 33 -104 94 -124 164
-6 22 -11 99 -11 170 0 113 3 137 23 183 27 63 101 133 158 150 26 8 129 12
306 12 l266 0 0 315 c0 173 2 315 5 315 4 0 18 -6 33 -14z m1322 -113 c0 -102
-4 -136 -19 -168 -19 -44 -98 -119 -132 -128 -21 -6 -21 -3 -18 116 4 110 7
128 32 180 26 52 102 127 128 127 5 0 9 -57 9 -127z m-1195 -1019 c-8 -46 -59
-119 -106 -154 -23 -16 -46 -30 -51 -30 -6 0 -8 53 -6 133 3 111 7 138 25 172
24 46 64 86 108 108 l30 15 3 -106 c2 -59 0 -121 -3 -138z"/>
<path d="M3932 588 l3 -293 33 -3 32 -3 0 295 0 296 -35 0 -35 0 2 -292z"/>
<path d="M5250 585 l0 -295 35 0 35 0 0 295 0 295 -35 0 -35 0 0 -295z"/>
<path d="M5098 549 l-3 -151 -28 -24 c-28 -24 -29 -24 -263 -24 l-234 0 0 98
c0 108 -16 158 -64 202 -26 24 -35 25 -162 28 -122 3 -137 2 -168 -18 -55 -33
-79 -94 -75 -190 4 -84 18 -113 73 -154 23 -18 45 -22 147 -25 l119 -3 0 31 0
31 -106 0 -106 0 -34 34 c-32 32 -34 38 -34 101 0 63 2 69 34 101 l34 34 106
0 c103 0 107 -1 138 -29 l33 -29 3 -169 c6 -272 -3 -283 -212 -283 l-136 0 0
-31 0 -30 154 3 c139 3 158 5 183 24 43 32 65 78 71 149 l5 65 239 0 c347 0
341 -4 347 247 l3 163 -30 0 -31 0 -3 -151z"/>
<path d="M3493 659 c-48 -31 -73 -91 -73 -178 0 -45 6 -83 15 -101 l16 -30
-51 0 c-49 0 -50 -1 -50 -30 l0 -30 245 0 245 0 0 30 0 30 -143 0 c-113 0
-147 3 -165 16 -70 48 -71 187 -2 241 20 16 210 17 245 1 22 -10 29 -9 47 9
l21 22 -34 20 c-30 18 -50 21 -159 21 -109 0 -129 -3 -157 -21z"/>
<path d="M4980 190 c0 -38 2 -40 30 -40 28 0 30 2 30 40 0 38 -2 40 -30 40
-28 0 -30 -2 -30 -40z"/>
<path d="M5094 216 c-3 -8 -4 -25 -2 -38 2 -18 10 -24 36 -26 31 -3 32 -2 32
37 0 39 -2 41 -30 41 -17 0 -33 -6 -36 -14z"/>
<path d="M5230 170 c-13 -13 -20 -33 -20 -60 0 -22 -4 -40 -10 -40 -5 0 -10
-4 -10 -10 0 -6 35 -10 85 -10 50 0 85 4 85 10 0 6 -24 10 -53 10 -60 0 -77
12 -77 52 0 34 22 46 75 43 46 -2 63 4 44 16 -27 17 -98 10 -119 -11z"/>
</g>
</svg>
